# xmcd
#
# Track frame offsets:
# 150
# 18654
# 31098
# 41187
# 54620
# 69599
# 82586
# 100283
# 113703
# 129350
# 146183
# 159393
# 175667
# 190521
#
# Disc length: 2768 seconds
#
#
# Revision: 0
# Processed by: cddbd v1.5PL3 Copyright (c) Steve Scherf et al.
# Submitted via: FreeRIP 2.60 
#
DISCID=b10ace0e
DTITLE=Iran e Ivan - 
DYEAR=2003
DGENRE=Sertanejo
TTITLE0=Iran e Ivan - Coisa de Pele
TTITLE1=Iran e Ivan - No embalo da Noitada
TTITLE2=Iran e Ivan - Nos Braços da Guria
TTITLE3=Iran e Ivan - Festa Cerveja e Mulher
TTITLE4=Iran e Ivan - No Vai e Vem da Morena
TTITLE5=Iran e Ivan - Vou Qrebrar tudo
TTITLE6=Iran e Ivan - Quando a Paixão Acontece
TTITLE7=Iran e Ivan - Hoje Não tem Saideira
TTITLE8=Iran e Ivan - Festa de Rodeio
TTITLE9=Iran e Ivan - Não é Facil Não
TTITLE10=Iran e Ivan - Hei Amor
TTITLE11=Iran e Ivan - Cai a Noite
TTITLE12=Iran e Ivan - Ai Ai Amor
TTITLE13=Iran e Ivan - Viola e Berrante
EXTD=
EXTT0=
EXTT1=
EXTT2=
EXTT3=
EXTT4=
EXTT5=
EXTT6=
EXTT7=
EXTT8=
EXTT9=
EXTT10=
EXTT11=
EXTT12=
EXTT13=
PLAYORDER=
